<svg xmlns="http://www.w3.org/2000/svg" viewBox="0 0 64 64">
  <defs>
    <linearGradient id="bg" x1="0%" y1="0%" x2="100%" y2="100%">
      <stop offset="0%" style="stop-color:#E07A5F"/>
      <stop offset="100%" style="stop-color:#C44569"/>
    </linearGradient>
  </defs>
  <!-- Rounded background -->
  <rect width="64" height="64" rx="14" fill="url(#bg)"/>
  <!-- Mini maze pattern -->
  <g fill="#fff" opacity="0.95">
    <!-- Top row -->
    <rect x="10" y="10" width="10" height="10" rx="2"/>
    <rect x="22" y="10" width="10" height="10" rx="2"/>
    <rect x="34" y="10" width="10" height="10" rx="2"/>
    <rect x="46" y="10" width="10" height="10" rx="2"/>
    <!-- Second row -->
    <rect x="46" y="22" width="10" height="10" rx="2"/>
    <!-- Third row -->
    <rect x="22" y="22" width="10" height="10" rx="2"/>
    <rect x="34" y="22" width="10" height="10" rx="2"/>
    <rect x="46" y="22" width="10" height="10" rx="2"/>
    <!-- Fourth row -->
    <rect x="22" y="34" width="10" height="10" rx="2"/>
    <!-- Fifth row -->
    <rect x="22" y="46" width="10" height="10" rx="2"/>
    <rect x="34" y="46" width="10" height="10" rx="2"/>
    <rect x="46" y="46" width="10" height="10" rx="2"/>
  </g>
  <!-- Paint ball (player) -->
  <circle cx="16" cy="16" r="4" fill="#FFD700"/>
</svg>
